<mxfile host="app.diagrams.net" modified="2024-04-09T02:36:12.336Z" agent="Mozilla/5.0 (Windows NT 10.0; Win64; x64) AppleWebKit/537.36 (KHTML, like Gecko) Chrome/123.0.0.0 Safari/537.36" etag="bWR9X-8Y3HBtlYeZLwoA" version="24.2.2" type="google">
  <diagram name="PÃ¡gina-1" id="sC4hq_fNA2DWrrXhG1uh">
    <mxGraphModel grid="1" page="1" gridSize="10" guides="1" tooltips="1" connect="1" arrows="1" fold="1" pageScale="1" pageWidth="827" pageHeight="1169" math="0" shadow="0">
      <root>
        <mxCell id="0" />
        <mxCell id="1" parent="0" />
        <mxCell id="fQ6vx5jXDEZoRoX_cghb-1" value="" style="ellipse;html=1;shape=startState;fillColor=#000000;strokeColor=#ff0000;" vertex="1" parent="1">
          <mxGeometry x="190" y="40" width="30" height="30" as="geometry" />
        </mxCell>
        <mxCell id="fQ6vx5jXDEZoRoX_cghb-2" value="" style="edgeStyle=orthogonalEdgeStyle;html=1;verticalAlign=bottom;endArrow=open;endSize=8;strokeColor=#ff0000;rounded=0;" edge="1" parent="1" source="fQ6vx5jXDEZoRoX_cghb-1">
          <mxGeometry relative="1" as="geometry">
            <mxPoint x="205" y="130" as="targetPoint" />
          </mxGeometry>
        </mxCell>
        <mxCell id="fQ6vx5jXDEZoRoX_cghb-3" value="Idle" style="swimlane;fontStyle=1;align=center;verticalAlign=top;childLayout=stackLayout;horizontal=1;startSize=26;horizontalStack=0;resizeParent=1;resizeParentMax=0;resizeLast=0;collapsible=1;marginBottom=0;whiteSpace=wrap;html=1;" vertex="1" parent="1">
          <mxGeometry x="125" y="130" width="160" height="86" as="geometry" />
        </mxCell>
        <mxCell id="fQ6vx5jXDEZoRoX_cghb-4" value="BDusuarios" style="text;strokeColor=none;fillColor=none;align=center;verticalAlign=top;spacingLeft=4;spacingRight=4;overflow=hidden;rotatable=0;points=[[0,0.5],[1,0.5]];portConstraint=eastwest;whiteSpace=wrap;html=1;" vertex="1" parent="fQ6vx5jXDEZoRoX_cghb-3">
          <mxGeometry y="26" width="160" height="26" as="geometry" />
        </mxCell>
        <mxCell id="fQ6vx5jXDEZoRoX_cghb-5" value="" style="line;strokeWidth=1;fillColor=none;align=left;verticalAlign=middle;spacingTop=-1;spacingLeft=3;spacingRight=3;rotatable=0;labelPosition=right;points=[];portConstraint=eastwest;strokeColor=inherit;" vertex="1" parent="fQ6vx5jXDEZoRoX_cghb-3">
          <mxGeometry y="52" width="160" height="8" as="geometry" />
        </mxCell>
        <mxCell id="fQ6vx5jXDEZoRoX_cghb-6" value="Registrar usuario" style="text;strokeColor=none;fillColor=none;align=center;verticalAlign=top;spacingLeft=4;spacingRight=4;overflow=hidden;rotatable=0;points=[[0,0.5],[1,0.5]];portConstraint=eastwest;whiteSpace=wrap;html=1;" vertex="1" parent="fQ6vx5jXDEZoRoX_cghb-3">
          <mxGeometry y="60" width="160" height="26" as="geometry" />
        </mxCell>
        <mxCell id="fQ6vx5jXDEZoRoX_cghb-7" value="" style="edgeStyle=orthogonalEdgeStyle;html=1;verticalAlign=bottom;endArrow=open;endSize=8;strokeColor=#ff0000;rounded=0;" edge="1" parent="1">
          <mxGeometry relative="1" as="geometry">
            <mxPoint x="204.5" y="276" as="targetPoint" />
            <mxPoint x="204.5" y="216" as="sourcePoint" />
          </mxGeometry>
        </mxCell>
        <mxCell id="fQ6vx5jXDEZoRoX_cghb-9" value="Registrando usuario" style="swimlane;fontStyle=1;align=center;verticalAlign=top;childLayout=stackLayout;horizontal=1;startSize=26;horizontalStack=0;resizeParent=1;resizeParentMax=0;resizeLast=0;collapsible=1;marginBottom=0;whiteSpace=wrap;html=1;" vertex="1" parent="1">
          <mxGeometry x="125" y="280" width="160" height="86" as="geometry" />
        </mxCell>
        <mxCell id="fQ6vx5jXDEZoRoX_cghb-10" value="BDusuarios" style="text;strokeColor=none;fillColor=none;align=center;verticalAlign=top;spacingLeft=4;spacingRight=4;overflow=hidden;rotatable=0;points=[[0,0.5],[1,0.5]];portConstraint=eastwest;whiteSpace=wrap;html=1;" vertex="1" parent="fQ6vx5jXDEZoRoX_cghb-9">
          <mxGeometry y="26" width="160" height="26" as="geometry" />
        </mxCell>
        <mxCell id="fQ6vx5jXDEZoRoX_cghb-11" value="" style="line;strokeWidth=1;fillColor=none;align=left;verticalAlign=middle;spacingTop=-1;spacingLeft=3;spacingRight=3;rotatable=0;labelPosition=right;points=[];portConstraint=eastwest;strokeColor=inherit;" vertex="1" parent="fQ6vx5jXDEZoRoX_cghb-9">
          <mxGeometry y="52" width="160" height="8" as="geometry" />
        </mxCell>
        <mxCell id="fQ6vx5jXDEZoRoX_cghb-12" value="mostrar mensaje de exito" style="text;strokeColor=none;fillColor=none;align=center;verticalAlign=top;spacingLeft=4;spacingRight=4;overflow=hidden;rotatable=0;points=[[0,0.5],[1,0.5]];portConstraint=eastwest;whiteSpace=wrap;html=1;" vertex="1" parent="fQ6vx5jXDEZoRoX_cghb-9">
          <mxGeometry y="60" width="160" height="26" as="geometry" />
        </mxCell>
        <mxCell id="fQ6vx5jXDEZoRoX_cghb-13" value="registrar_usuario(Usuario)" style="text;html=1;align=center;verticalAlign=middle;resizable=0;points=[];autosize=1;strokeColor=none;fillColor=none;" vertex="1" parent="1">
          <mxGeometry x="210" y="230" width="160" height="30" as="geometry" />
        </mxCell>
        <mxCell id="fQ6vx5jXDEZoRoX_cghb-14" value="" style="edgeStyle=orthogonalEdgeStyle;html=1;verticalAlign=bottom;endArrow=open;endSize=8;strokeColor=#ff0000;rounded=0;" edge="1" parent="1">
          <mxGeometry relative="1" as="geometry">
            <mxPoint x="204.5" y="420" as="targetPoint" />
            <mxPoint x="204.5" y="360" as="sourcePoint" />
          </mxGeometry>
        </mxCell>
        <mxCell id="fQ6vx5jXDEZoRoX_cghb-15" value="" style="ellipse;html=1;shape=endState;fillColor=#000000;strokeColor=#ff0000;" vertex="1" parent="1">
          <mxGeometry x="190" y="420" width="30" height="30" as="geometry" />
        </mxCell>
      </root>
    </mxGraphModel>
  </diagram>
</mxfile>
